<svg xmlns="http://www.w3.org/2000/svg" enable-background="new 0 0 3000 2000" viewBox="0 0 3000 2000"><switch><g><polygon points="2028.569 1048.823 1996.479 1067.472 1987.682 1062.452 1856.721 1138.559 1856.684 1151.474 2070.489 1273.484 2070.518 1263.21 2070.547 1273.484 2102.698 1254.904 2111.376 1259.855 2111.404 1249.873 2111.406 1249.872 2111.434 1259.855 2242.374 1184.184 2242.374 1170.833" opacity=".1"/><polygon fill="#a37857" points="2070.525 1249.665 2201.487 1173.559 1987.682 1051.549 1856.721 1127.656"/><polygon fill="#bf997c" points="1856.684 1140.571 2070.489 1262.581 2070.525 1249.665 1856.721 1127.656"/><polygon fill="#785841" points="2201.487 1186.91 2070.547 1262.581 2070.51 1249.665 2201.487 1173.559"/><polygon fill="#a37857" points="2111.412 1236.036 2242.374 1159.93 2028.569 1037.92 1897.608 1114.027"/><polygon fill="#bf997c" points="1897.571 1126.942 2111.375 1248.952 2111.412 1236.036 1897.608 1114.027"/><polygon fill="#785841" points="2242.374 1173.281 2111.434 1248.952 2111.397 1236.036 2242.374 1159.93"/><polygon points="1333.029 1773.017 1188.866 1689.239 1506.613 1506.096 1650.776 1589.874" opacity=".1"/><polygon fill="#a37857" points="1333.456 1748.485 1202.495 1672.378 1503.525 1498.578 1634.486 1574.685"/><polygon fill="#bf997c" points="1634.522 1587.601 1333.493 1761.401 1333.456 1748.485 1634.486 1574.685"/><polygon fill="#785841" points="1202.495 1685.729 1333.434 1761.401 1333.471 1748.485 1202.495 1672.378"/><polygon points="1297.593 1901.129 1153.43 1817.35 1471.177 1634.208 1615.34 1717.986" opacity=".1"/><polygon fill="#a37857" points="1298.021 1876.597 1167.059 1800.49 1468.089 1626.691 1599.051 1702.797"/><polygon fill="#bf997c" points="1599.087 1715.713 1298.057 1889.512 1298.021 1876.597 1599.051 1702.797"/><polygon fill="#785841" points="1167.059 1813.841 1297.999 1889.512 1298.036 1876.597 1167.059 1800.49"/><polygon points="1477.495 1759.388 1333.333 1675.609 1651.079 1492.467 1795.242 1576.245" opacity=".1"/><polygon fill="#a37857" points="1477.923 1734.856 1346.962 1658.75 1647.991 1484.95 1778.953 1561.056"/><polygon fill="#bf997c" points="1778.989 1573.972 1477.959 1747.771 1477.923 1734.856 1778.953 1561.056"/><polygon fill="#785841" points="1346.962 1672.1 1477.901 1747.771 1477.938 1734.856 1346.962 1658.75"/><polygon points="2329.035 819.02 1914.505 1069.785 1797.296 1006.393 1797.296 286.674 2211.827 35.909 2211.827 772.652" opacity=".07"/><polygon fill="#543e2e" points="2337.213 821.746 1922.682 1072.511 1805.473 289.4 2220.004 38.635"/><polygon fill="#a37857" points="2211.827 35.909 2220.004 38.635 1805.473 289.4 1797.296 286.674"/><polygon fill="#785841" points="1797.296 286.674 1805.473 289.4 1922.682 1072.511 1914.505 1069.785"/><g><polygon fill="#dcdcdc" points="1914.166 1091.569 408.533 1964.091 242.554 1869.417 1748.187 996.895"/><polygon fill="#543e2e" points="790.432 1661.583 375.901 1912.348 375.901 1047.464 790.432 796.699"/><polygon points="1726.481 1071.993 861.042 1568.609 861.042 1245.75 1726.481 749.134" opacity=".1"/><polygon fill="#543e2e" points="1783.723 1104.702 918.283 1609.496 918.283 1286.637 1783.723 781.843"/><polygon fill="#785841" points="1853.088 1084.415 1722.126 1008.308 1721.505 789.155 1852.466 865.261"/><polygon fill="#a37857" points="1550.652 1259.026 1419.691 1182.919 1722.126 1008.308 1853.088 1084.415"/><polygon fill="#785841" points="1539.412 1265.515 1408.451 1189.409 1408.159 1086.271 1539.12 1162.378"/><polygon fill="#785841" points="1539.083 1165.817 1408.122 1089.71 1407.83 970.256 1538.791 1046.362"/><polygon fill="#a37857" points="1238.382 1439.315 1107.421 1363.209 1408.451 1189.409 1539.412 1265.515"/><polygon fill="#785841" points="1227.175 1445.786 1096.214 1369.679 1095.592 1150.526 1226.553 1226.633"/><polygon fill="#a37857" points="924.74 1620.396 793.779 1544.29 1096.214 1369.679 1227.175 1445.786"/><polygon fill="#a37857" points="904.417 1390.016 773.456 1313.91 1741.078 755.253 1872.04 831.359"/><polygon fill="#785841" points="905.166 1654.262 774.205 1578.155 773.456 1313.91 904.417 1390.016"/><polygon fill="#a37857" points="661.024 1772.653 530.062 1696.547 746.563 1571.55 877.525 1647.656"/><polygon fill="#785841" points="877.525 1647.656 746.563 1571.55 745.862 1324.313 876.824 1400.419"/><polygon fill="#a37857" points="433.315 1904.121 302.354 1828.015 518.855 1703.018 649.816 1779.124"/><polygon fill="#785841" points="649.816 1779.124 518.855 1703.018 518.154 1455.78 649.115 1531.887"/><polygon fill="#a37857" points="660.286 1512.537 529.325 1436.431 745.826 1311.434 876.787 1387.541"/><polygon fill="#785841" points="876.787 1387.541 745.826 1311.434 745.116 1060.931 876.077 1137.037"/><polygon fill="#a37857" points="432.578 1644.005 301.617 1567.899 518.117 1442.902 649.079 1519.008"/><polygon fill="#785841" points="649.079 1519.008 518.117 1442.902 517.407 1192.399 648.368 1268.505"/><polygon fill="#a37857" points="659.539 1249.119 528.578 1173.012 745.079 1048.015 876.04 1124.122"/><polygon fill="#785841" points="876.04 1124.122 745.079 1048.015 744.378 800.815 875.34 876.922"/><polygon fill="#a37857" points="431.831 1380.586 300.87 1304.48 517.371 1179.483 648.332 1255.589"/><polygon fill="#785841" points="648.332 1255.589 517.371 1179.483 516.67 932.283 647.631 1008.39"/><polygon fill="#a37857" points="411.428 1122.16 280.467 1046.053 763.952 766.913 894.913 843.019"/><path fill="#bf997c" d="M411.428,1122.16l483.485-279.14l2.313,815.826l-483.485,279.14L411.428,1122.16z
								 M876.787,1387.541l-0.71-250.503l-216.501,124.997l0.71,250.503L876.787,1387.541L876.787,1387.541z M649.079,1519.008
								l-0.71-250.503l-216.501,124.997l0.71,250.503L649.079,1519.008L649.079,1519.008z M877.525,1647.656l-0.701-247.237
								l-216.501,124.997l0.701,247.237L877.525,1647.656L877.525,1647.656z M649.816,1779.124l-0.701-247.237l-216.501,124.997
								l0.701,247.237L649.816,1779.124L649.816,1779.124z M876.04,1124.122l-0.701-247.2l-216.501,124.997l0.701,247.2
								L876.04,1124.122L876.04,1124.122z M648.332,1255.589l-0.701-247.2L431.13,1133.386l0.701,247.2L648.332,1255.589
								L648.332,1255.589z"/><polygon fill="#785841" points="413.741 1937.986 282.78 1861.88 280.467 1046.053 411.428 1122.16"/><path fill="#bf997c" d="M1872.04,831.359l-967.623,558.657l0.749,264.245l967.623-558.657L1872.04,831.359z
							 M924.74,1620.396l-0.621-219.153l302.435-174.611l0.621,219.153L924.74,1620.396z M1238.382,1439.315l-0.097-34.182
							l-0.196,0.116v-82.009l-0.037,0.021l-0.292-103.1l301.03-173.8l0.136,48.099l0.156-0.069v68.006l0.037-0.021l0.292,103.137
							L1238.382,1439.315z M1550.652,1259.026l-0.621-219.153l302.435-174.611l0.621,219.153L1550.652,1259.026z"/><path fill="#bf997c" d="M1509.641,1157.36c2.021,1.166,3.671,4.026,3.664,6.347
										c-0.007,2.34-1.668,3.287-3.688,2.121c-2.037-1.176-3.688-4.035-3.681-6.376
										C1505.942,1157.131,1507.604,1156.184,1509.641,1157.36z"/><polygon fill="#bf997c" points="1500.599 1161.01 1507.852 1156.854 1511.184 1166.327 1503.93 1170.483"/><path fill="#a37857" d="M1502.305,1161.516c2.02,1.166,3.671,4.025,3.664,6.347
										c-0.007,2.341-1.668,3.287-3.688,2.121c-2.037-1.176-3.688-4.035-3.681-6.376
										C1498.606,1161.287,1500.268,1160.34,1502.305,1161.516z"/><path fill="#bf997c" d="M1438.77,1116.473c2.02,1.167,3.671,4.026,3.664,6.347
										c-0.007,2.341-1.668,3.287-3.688,2.121c-2.037-1.176-3.688-4.035-3.681-6.376
										C1435.072,1116.244,1436.733,1115.297,1438.77,1116.473z"/><polygon fill="#bf997c" points="1429.728 1120.123 1436.982 1115.967 1440.313 1125.44 1433.06 1129.596"/><path fill="#a37857" d="M1431.434,1120.629c2.02,1.167,3.671,4.025,3.664,6.347
										c-0.007,2.341-1.668,3.287-3.688,2.121c-2.037-1.176-3.688-4.035-3.681-6.376
										C1427.736,1120.4,1429.397,1119.453,1431.434,1120.629z"/><g><path fill="#bf997c" d="M1201.627,1337.262c2.02,1.167,3.671,4.026,3.664,6.347
										c-0.007,2.341-1.668,3.287-3.688,2.121c-2.037-1.176-3.688-4.035-3.681-6.376
										C1197.928,1337.033,1199.59,1336.086,1201.627,1337.262z"/><polygon fill="#bf997c" points="1192.584 1340.912 1199.838 1336.756 1203.17 1346.229 1195.916 1350.385"/><path fill="#a37857" d="M1194.291,1341.418c2.02,1.167,3.671,4.026,3.664,6.347
										c-0.007,2.34-1.668,3.287-3.688,2.121c-2.037-1.176-3.688-4.035-3.681-6.376
										C1190.592,1341.189,1192.254,1340.242,1194.291,1341.418z"/><path fill="#bf997c" d="M1130.756,1296.375c2.02,1.166,3.671,4.026,3.664,6.347
										c-0.007,2.341-1.668,3.287-3.689,2.121c-2.037-1.176-3.688-4.035-3.681-6.376
										C1127.058,1296.146,1128.719,1295.199,1130.756,1296.375z"/><polygon fill="#bf997c" points="1121.714 1300.026 1128.968 1295.87 1132.299 1305.342 1125.046 1309.498"/><path fill="#a37857" d="M1123.42,1300.531c2.021,1.166,3.671,4.025,3.664,6.347
										c-0.007,2.341-1.668,3.288-3.688,2.121c-2.037-1.176-3.688-4.035-3.681-6.376
										C1119.722,1300.302,1121.383,1299.355,1123.42,1300.531z"/></g><g><path fill="#bf997c" d="M1823.107,977.458c2.02,1.167,3.671,4.025,3.664,6.347
										c-0.007,2.341-1.668,3.287-3.688,2.121c-2.037-1.176-3.688-4.035-3.681-6.376
										C1819.408,977.229,1821.07,976.282,1823.107,977.458z"/><polygon fill="#bf997c" points="1814.064 981.108 1821.318 976.952 1824.65 986.425 1817.396 990.581"/><path fill="#a37857" d="M1815.771,981.614c2.02,1.167,3.671,4.025,3.664,6.347
										c-0.007,2.341-1.668,3.287-3.689,2.121c-2.037-1.176-3.688-4.035-3.681-6.376
										C1812.072,981.385,1813.734,980.438,1815.771,981.614z"/><path fill="#bf997c" d="M1752.236,936.571c2.02,1.166,3.671,4.025,3.664,6.347
										c-0.007,2.341-1.668,3.287-3.688,2.121c-2.037-1.176-3.688-4.035-3.681-6.376
										C1748.538,936.342,1750.199,935.395,1752.236,936.571z"/><polygon fill="#bf997c" points="1743.194 940.221 1750.447 936.065 1753.779 945.538 1746.525 949.694"/><path fill="#a37857" d="M1744.9,940.727c2.02,1.167,3.671,4.026,3.664,6.347c-0.007,2.341-1.668,3.288-3.688,2.121
										c-2.037-1.176-3.688-4.035-3.681-6.376C1741.202,940.498,1742.863,939.551,1744.9,940.727z"/></g></g><g><polygon points="2599.725 1356.845 2757.446 1265.372 2245.61 969.864 2087.889 1061.336" opacity=".1"/><polygon fill="#a37857" points="2343.585 1168.283 2474.546 1092.177 2258.044 967.18 2127.083 1043.286"/><polygon fill="#785841" points="2127.083 1043.286 2258.044 967.18 2258.745 719.942 2127.784 796.049"/><polygon fill="#a37857" points="2571.293 1299.751 2702.254 1223.644 2485.753 1098.647 2354.792 1174.753"/><polygon fill="#785841" points="2354.792 1174.753 2485.753 1098.647 2486.454 851.41 2355.493 927.516"/><polygon fill="#785841" points="2127.821 799.525 2258.782 723.419 2259.492 456.561 2128.531 532.667"/><polygon fill="#785841" points="2355.529 930.992 2486.49 854.886 2487.2 588.028 2356.24 664.135"/><polygon fill="#785841" points="2128.567 536.106 2259.529 460 2260.229 196.445 2129.268 272.551"/><polygon fill="#785841" points="2356.276 667.573 2487.237 591.467 2487.938 327.913 2356.977 404.019"/><polygon fill="#a37857" points="2593.179 517.789 2724.14 441.683 2240.656 162.543 2109.695 238.649"/><polygon fill="#785841" points="2590.866 1333.615 2721.828 1257.509 2724.14 441.683 2593.179 517.789"/><path fill="#bf997c" d="M2163.298,530.429c-2.02,1.166-3.671,4.025-3.665,6.347
										c0.007,2.341,1.668,3.287,3.689,2.121c2.037-1.176,3.688-4.035,3.681-6.376
										C2166.997,530.199,2165.335,529.253,2163.298,530.429z"/><polygon fill="#bf997c" points="2172.34 534.079 2165.087 529.923 2161.756 539.396 2169.009 543.552"/><path fill="#a37857" d="M2170.635,534.584c-2.021,1.166-3.671,4.026-3.665,6.347
										c0.007,2.34,1.668,3.287,3.688,2.121c2.037-1.176,3.688-4.035,3.681-6.376
										C2174.333,534.355,2172.671,533.408,2170.635,534.584z"/><path fill="#bf997c" d="M2234.169,489.542c-2.021,1.166-3.671,4.026-3.665,6.347
										c0.007,2.34,1.668,3.287,3.688,2.121c2.037-1.176,3.688-4.035,3.681-6.376
										C2237.867,489.312,2236.206,488.366,2234.169,489.542z"/><polygon fill="#bf997c" points="2243.211 493.192 2235.958 489.036 2232.626 498.509 2239.879 502.665"/><path fill="#a37857" d="M2241.505,493.698c-2.02,1.166-3.671,4.025-3.664,6.347
										c0.007,2.341,1.668,3.288,3.688,2.121c2.037-1.176,3.688-4.035,3.681-6.376
										C2245.203,493.468,2243.542,492.522,2241.505,493.698z"/><path fill="#bf997c" d="M2163.298,789.378c-2.02,1.167-3.671,4.025-3.665,6.347
										c0.007,2.341,1.668,3.287,3.689,2.121c2.037-1.176,3.688-4.035,3.681-6.376
										C2166.997,789.149,2165.335,788.203,2163.298,789.378z"/><polygon fill="#bf997c" points="2172.34 793.029 2165.087 788.873 2161.756 798.346 2169.009 802.502"/><path fill="#a37857" d="M2170.635,793.534c-2.021,1.167-3.671,4.025-3.665,6.347
										c0.007,2.341,1.668,3.287,3.688,2.121c2.037-1.176,3.688-4.035,3.681-6.376
										C2174.333,793.305,2172.671,792.359,2170.635,793.534z"/><path fill="#bf997c" d="M2234.169,748.492c-2.021,1.166-3.671,4.026-3.665,6.347
										c0.007,2.341,1.668,3.287,3.688,2.121c2.037-1.176,3.688-4.035,3.681-6.376
										C2237.867,748.262,2236.206,747.316,2234.169,748.492z"/><polygon fill="#bf997c" points="2243.211 752.142 2235.958 747.986 2232.626 757.459 2239.879 761.615"/><path fill="#a37857" d="M2241.505,752.648c-2.02,1.166-3.671,4.026-3.664,6.347c0.007,2.34,1.668,3.287,3.688,2.121
										c2.037-1.176,3.688-4.035,3.681-6.376C2245.203,752.418,2243.542,751.472,2241.505,752.648z"/><g><path fill="#bf997c" d="M2392.265,920.216c-2.021,1.167-3.671,4.026-3.664,6.347
										c0.007,2.341,1.668,3.287,3.688,2.121c2.037-1.176,3.688-4.035,3.681-6.376
										C2395.963,919.987,2394.302,919.04,2392.265,920.216z"/><polygon fill="#bf997c" points="2401.307 923.867 2394.053 919.711 2390.722 929.183 2397.975 933.339"/><path fill="#a37857" d="M2399.601,924.372c-2.02,1.167-3.671,4.025-3.664,6.347c0.007,2.34,1.668,3.287,3.688,2.121
										c2.037-1.176,3.688-4.035,3.681-6.376C2403.299,924.143,2401.638,923.196,2399.601,924.372z"/><path fill="#bf997c" d="M2463.135,879.33c-2.02,1.166-3.671,4.025-3.664,6.347c0.007,2.341,1.668,3.287,3.688,2.121
										c2.037-1.176,3.688-4.035,3.681-6.376C2466.833,879.1,2465.172,878.154,2463.135,879.33z"/><polygon fill="#bf997c" points="2472.177 882.98 2464.924 878.824 2461.592 888.297 2468.846 892.453"/><path fill="#a37857" d="M2470.471,883.485c-2.02,1.166-3.671,4.025-3.664,6.347
										c0.007,2.341,1.668,3.287,3.688,2.121c2.037-1.176,3.688-4.035,3.681-6.376
										C2474.17,883.256,2472.508,882.31,2470.471,883.485z"/></g><g><path fill="#bf997c" d="M2392.265,655.815c-2.021,1.166-3.671,4.025-3.664,6.347
										c0.007,2.341,1.668,3.287,3.688,2.121c2.037-1.176,3.688-4.035,3.681-6.376
										C2395.963,655.586,2394.302,654.639,2392.265,655.815z"/><polygon fill="#bf997c" points="2401.307 659.465 2394.053 655.309 2390.722 664.782 2397.975 668.938"/><path fill="#a37857" d="M2399.601,659.971c-2.02,1.166-3.671,4.025-3.664,6.347
										c0.007,2.341,1.668,3.287,3.688,2.121c2.037-1.176,3.688-4.035,3.681-6.376
										C2403.299,659.742,2401.638,658.795,2399.601,659.971z"/><path fill="#bf997c" d="M2463.135,614.928c-2.02,1.166-3.671,4.026-3.664,6.347c0.007,2.34,1.668,3.287,3.688,2.121
										c2.037-1.176,3.688-4.035,3.681-6.376C2466.833,614.699,2465.172,613.752,2463.135,614.928z"/><polygon fill="#bf997c" points="2472.177 618.578 2464.924 614.422 2461.592 623.895 2468.846 628.051"/><path fill="#a37857" d="M2470.471,619.084c-2.02,1.166-3.671,4.025-3.664,6.347
										c0.007,2.341,1.668,3.287,3.688,2.121c2.037-1.176,3.688-4.035,3.681-6.376
										C2474.17,618.855,2472.508,617.908,2470.471,619.084z"/></g><path fill="#bf997c" d="M2107.382,1054.475l483.484,279.14l2.313-815.826l-483.484-279.14L2107.382,1054.475z
							 M2354.792,1174.753l2.185-770.734l216.501,124.997l-2.185,770.735L2354.792,1174.753z M2127.083,1043.286l2.185-770.734
							l216.501,124.997l-2.185,770.735L2127.083,1043.286z"/></g><g><path d="M1912.257,1294.415c18.822,13.17,29.757,30.053,28.349,47.531
							c-2.847,34.932-54.054,59.007-114.332,53.753c-2.382-0.208-4.689-0.525-7.03-0.825c-38.533-4.71-56.313,2.506-60.593,24.763
							c-6.33,32.698-55.778,54.802-113.806,49.744c-30.139-2.627-56.848-12.085-75.666-25.252
							c-18.818-13.168-29.746-30.045-28.322-47.511c2.85-34.971,54.023-59.029,114.333-53.753c2.382,0.207,4.688,0.524,6.998,0.803
							c38.533,4.71,56.313-2.506,60.624-24.741c6.33-32.698,55.746-54.824,113.774-49.766
							C1866.726,1271.786,1893.435,1281.244,1912.257,1294.415z" opacity=".1"/><path fill="#c7c7c7" d="M1976.513,831.596l25.122,12.085c6.96,9.708-5.233,46.825-21.469,48.386l-21.834-9.84
								L1976.513,831.596z"/><path fill="#f0c7ad" d="M2033.07,867.272c-4.694,0.411-11.967-2.071-13.459-1.136
								c-0.439,0.858,34.579,14.081,36.613,16.835c8.006,6.618-6.557,17.875-8.808,19.492c-8.372,6.018-30.12,1.574-37.505-1.202
								c-8.275-3.111-20.103-7.254-22.976-12.41c-1.893-3.397-5.792-5.598-8.376-7.143c-10.29-6.156-3.602-33.867,2.767-31.217
								c5.856,2.385,10.218,1.245,15.133-0.628c9.171-3.494,21.834,0.332,23.929,1.912c4.588,3.46,15.854,5.789,19.882,5.845
								c1.06,0.015,1.954,0.869,1.922,1.929C2042.094,862.819,2039.006,866.753,2033.07,867.272z"/><path fill="#fff" d="M1976.513,831.596l25.122,12.085c-9.933-0.611-26.144,37.2-21.469,48.386l-21.834-9.84
								L1976.513,831.596z"/><path fill="#fff" d="M1773.627,683.034c-18.945,6.324-54.222,23.787-44.638,30.961
								c28.346,21.218,84.436,90.545,109.721,113.999c23.167,21.489,135.829,68.139,135.829,68.139
								c-6.301-11.383,9.753-45.197,21.435-44.447l-112.147-58.894c0,0-48.626-67.781-65.101-89.844
								C1811.425,693.171,1795.584,675.705,1773.627,683.034z"/><path fill="#453426" d="M1765.022,1329.848c4.499,7.402,30.49,19.134,30.49,19.134l11.214-5.689L1765.022,1329.848z"/><path fill="#8c6a4f" d="M1795.512,1348.982c0,0-25.992-11.732-30.49-19.134c-1.057-1.74-0.436-13.689-0.436-13.689
								l32.724,22.007L1795.512,1348.982z"/><path fill="#8c6a4f" d="M1883.71,1354.216c2.354-14.616-36.169-33.588-66.357-46.443
								c-30.188-12.856-43.282-26.621-50.73-9.132s-1.983,30.077,28.204,42.933c13.609,5.795,26.186,19.387,43.235,25.072
								C1856.325,1372.736,1881.502,1367.923,1883.71,1354.216z"/><path fill="#2b2119" d="M1883.996,1351.955c5.322-13.815-36.169-33.587-66.357-46.443s-43.282-26.621-50.73-9.132
								c-7.448,17.488-1.681,29.167,28.507,42.023c13.609,5.796,29.237,18.726,46.509,23.692
								C1858.031,1366.725,1880.196,1361.821,1883.996,1351.955z"/><path fill="#3f3f3f" d="M1833.118,1312.11c5.15,17.322-65.987,13.483-70.442-6.176l-68.673-381.329l97.324-3.099
								L1833.118,1312.11z"/><path fill="#8c6a4f" d="M1661.019,1368.218c1.69,3.767,9.762,11.885,16.171,26.547
								c3.854,8.815,9.008,16.88,9.385,25.391c0.671,15.176-5.006,17.256-18.802,18.802c-23.929,2.682-47.941-22.624-54.946-52.831
								c-7.142-30.8,7.66-33.973,16.792-37.733C1645.039,1342.045,1648.082,1339.37,1661.019,1368.218z"/><path fill="#2b2119" d="M1662.075,1361.99c1.69,3.768,7.325,13.635,13.735,28.298
								c4.549,10.405,12.66,26.451,10.769,35.398c-4.566,4.566-22.817,9.128-34.5,4.103c-10.772-4.633-20.808-13.387-27.148-23.331
								c-8.189-12.844-20.378-54.438-5.162-61.262S1649.137,1333.142,1662.075,1361.99z"/><path fill="#dbdbdb" d="M1658.977,1003.787c-31.378-86.267-52.339-200.449-36.565-234.411
							c6.299-13.562,28.738-46.95,46.901-60.523c33.823-25.276,80.167-27.103,90.344-30.729c17.294-8.72,40.056,23.041,47.428,47.93
							c12.202,41.195-31.795,141.441-34.13,217.646L1658.977,1003.787z"/><path fill="#565656" d="M1781.614,737.083l8.221-12.915c-18.759-46.245-62.97-56.667-71.558-48.716l-8.779,8.024
							C1727.797,674.247,1771.726,710.003,1781.614,737.083z"/><path fill="#d9b49c" d="M1754.69,706.485c-30.098,24.714-64.147,3.771-61.606-6.519l-1.299-58.285l65.57,0.892
							L1754.69,706.485z"/><path fill="#ffd5b9" d="M1684.522,623.08c1.779,19.345,10.175,35.348,23.571,49.572
							c11.778,12.506,26.777,25.301,39.142,25.149c27.653-0.341,18.067-11.429,23.398-22.815c6.743-14.402,11.677-33.757,9.81-54.06
							c-1.387-15.081-5.159-32.98-14.38-42.693c-13.007-13.702-37.952-18.584-52.94-14.765
							C1687.295,570.048,1681.179,586.726,1684.522,623.08z"/><path fill="#664b3c" d="M1771.903,564.162c3.687,2.847,0.568,7.608,0.955,13.174c0.42,6.045,3.164,12.095,2.459,17.957
							c-3.206-4.434-7.23-14.591-12.084-11.053c-3.667,2.673-3.676,3.354-10.271,4.398c-11.305,0.088-17.059-8.653-31.864-4.513
							c-13.096,3.662-24.36,20.171-13.352,36.464c-1.398,4.557-2.382,10.298-5.905,18.007c-1.739-5.942-5.175-10.049-8.089-9.401
							c-3.193,0.71-4.544,6.851-3.018,13.717c1.033,4.648,3.985,8.167,6.216,9.909c-1.663,4.924,3.6,8.946,3.545,10.913
							c-11.066-10.793-15.901-23.372-16.476-33.805c-1.401-25.401-2.108-48.228,10.521-60.453
							C1709.529,554.968,1761.636,556.235,1771.903,564.162z"/><path fill="#565656" d="M1634.421,925.162c92.986,10.974,59.81-142.008,78.453-179.98
							c30.656,12.38,44.207-13.551,71.465-35.357c16.507,36.552,13.629,141.741,6.374,229.78
							c-8.734,12.154-35.032,44.26-41.323,56.27c-27.256,87.043-79.859,374.325-79.859,374.325c0.353,9.865-4.908,1.363-7.999,2.091
							c-12.96,3.049-45.224,28.344-50.491-6.417c0,0,10.856-337.406,13.499-371.757
							C1625.952,975.759,1622.112,951.539,1634.421,925.162z"/><path fill="#ebc3a9" d="M1979.278,922.841c3.43-5.072,9.71-17.399,3.138-18.567c-6.67-1.186-25.974-2.09-35.426-3.283
								c-5.432-0.685-8.714-8.281-8.459-11.586c0.366-4.735,9.756-11.256,9.166-15.59c-0.746-5.482-4.53-8.169-7.566-8.114
								c-0.984,0.018-1.822,0.891-1.703,1.869c0.752,6.209-18.041,11.673-20.951,16.732c-2.39,4.153-13.083-1.804-18.926-2.383
								c-6.369-0.681-13.988,33.196-3.203,35.964c2.708,0.695,17.356,2.828,18.512,6.333c3.156,9.57,31.297,14.623,38.383,14.196
								C1959.556,937.97,1974.879,929.347,1979.278,922.841z"/><path fill="#fff" d="M1635.829,765.19c-15.82,14.144-2.735,41.209,6.472,49.303
							c25.538,22.451,99.328,57.641,116.028,67.07c18.452,10.419,137.991,50.288,137.991,50.288
							c9.145-6.529,19.761-40.773,15.882-49.965l-126.011-53.336c0,0-67.629-48.295-91.28-65.014
							C1678.142,751.683,1658.163,745.223,1635.829,765.19z"/><path fill="#565656" d="M1715.594,768.95l14.076-7.175c-35.552-35.021-86.663-34.44-91.396-23.736l-4.879,10.846
							C1646.537,733.158,1695.782,748.007,1715.594,768.95z"/></g><g><path d="M1946.177,1360.46l27.35-15.894l0.003-1.202l164.276-95.466l3.892,2.221
								c17.111-10.656,40.005-18.253,65.646-20.488c53.885-4.697,99.771,15.849,105.65,46.212
								c4.003,20.647,20.514,27.348,56.295,22.974c2.144-0.259,4.286-0.553,6.499-0.746c56.003-4.9,103.521,17.441,106.168,49.914
								c1.322,16.219-8.825,31.891-26.3,44.119c-13.043,9.126-30.173,16.326-49.657,20.409v5.178l-27.354,15.808v1.288
								l-164.248,94.921l-0.037-12.887l-0.036,12.887l-268.193-153.047L1946.177,1360.46z" opacity=".1"/><path fill="#919191" d="M2077.607,868.846c0,0,23.543-5.151,38.995-7.44l27.129-57.458
									c-21.591,1.846-73.439,17.13-73.439,17.13C2063.154,826.585,2069.09,864.59,2077.607,868.846z"/><path fill="#fff" d="M2340.853,658.871c1.718,33.125-69.14,146.058-88.039,162.492
									c-15.352,13.349-175.207,47.483-175.207,47.483c7.718-7.229,4.345-42.326-7.316-47.768c0,0,128.702-40.389,131.601-44.847
									c11.591-17.83,47.497-90.911,65.302-112.633C2287.736,638.536,2338.998,639.47,2340.853,658.871z"/><path fill="#8c6a4f" d="M2135.543,1280.223c-0.368-13.875,47.081-14.268,83.661-12.342
								c36.581,1.926,58.324-6.829,59.51,9.975c0.255,3.612,0.15,4.758-0.06,8.806c-0.57,10.975-6.704,20.068-31.796,20.462
								c-2.618,0.041-11.59-3.462-14.31-3.412c-16.502,0.305-46.241,6.734-66.004,3.644
								C2148.117,1304.476,2135.889,1293.288,2135.543,1280.223z"/><path fill="#2b2119" d="M2135.696,1277.724c0.664-8.816,38.847-20.697,70.844-21.746
								c4.076-0.134,9.264-19.913,13.29-19.464c23.318,2.602,45.398,15.366,54.514,16.278c5.111,0.512,4.064,16.034,3.68,22.378
								c-1.067,17.658-13.892,25.46-50.472,23.533c-16.491-0.869-39.121,7.426-58.884,4.336
								C2150.24,1300.16,2134.715,1290.755,2135.696,1277.724z"/><path fill="#3d3d3d" d="M2278.287,1256.223c-13.336,26.334-80.094,9.23-72.216-8.227
								c-3.342-130.848,19.409-268.531,33.411-345.906l93.796,72.666C2299.372,1086.519,2290.06,1153.034,2278.287,1256.223z"/><path fill="#8c6a4f" d="M2355.064,1335.75c-0.557,30.87-6.512,52.097,27.201,52.886
								c24.148,0.565,37.081-23.432,37.637-54.302s-17.811-57.17-35.622-57.49C2366.469,1276.524,2355.621,1304.88,2355.064,1335.75
								z"/><path fill="#2b2119" d="M2354.215,1326.387c-0.557,30.87-6.489,53.934,27.224,54.723
								c24.148,0.565,37.058-25.269,37.615-56.139c0.557-30.87-17.811-57.17-35.622-57.49
								C2365.62,1267.161,2354.771,1295.516,2354.215,1326.387z"/><path fill="#e0e0e0" d="M2399.391,667.516c-4.509-1.958-10.685-3.315-17.553-4.911
								c-11.394-2.648-48.472-22.457-53.321-24.128c-14.985-2.516-41.266,10.387-55.642,34.946
								c-27.923,47.703-36.95,126.817-35.626,203.95h136.997c3.178-8.992,6.443-18.748,9.606-29.558
								c6.74-23.033,44.909-107.771,48.284-131.103C2435.315,694.741,2419.558,676.271,2399.391,667.516z"/><path fill="#4a4a4a" d="M2311.51,640.581c-9.068,7.251-23.316,19.126-28.392,32.663l12.703,6.697
								c2.046-17.277,21.393-27.158,30.066-37.957C2321.099,640.348,2315.597,638.362,2311.51,640.581z"/><path fill="#4a4a4a" d="M2400.564,814.815c1.952-4.727-48.284-26.999-51.285-51.007
								c-1.91-15.284,8.003-43.015,14.005-57.02c-30.863-7.818-65.842-23.688-75.427-37.465c-9.657,4.4-16.845,23.758-27.04,48.82
								c-4.805,11.812-14.103,15.008-14.546,17.694c-13.827,83.857-6.5,168.259,23.155,216.784
								c15.813,25.876,42.147,250.055,79.601,352.863c8.351,24.919,62.109,27.46,69.545-2.286
								c-22.681-102.537-36.469-214.061-36.207-317.356C2382.6,893.893,2397.704,821.744,2400.564,814.815z"/><path fill="#4a4a4a" d="M2360.872,712.382l-10.082-6.309c14.25-26.547,30.19-38.708,50.923-37.815
								c3.222-0.083,8.971,2.878,9.831,5.948C2390.214,677.576,2374.301,689.477,2360.872,712.382z"/><path fill="#ccaa92" d="M2318.52,570.049l-3.228,80.953c0,0-3.749,15.664,11.011,21.323
								c21.632,8.292,53.119,0.12,55.282-9.254l8.01-94.341L2318.52,570.049z"/><path fill="#e6bfa5" d="M2409.109,594.812c-6.331,20.103-16.303,30.554-33.827,37.722
								c-15.791,6.459-34.44,17.711-50.765,13.663c-18.613-4.616-26.619-37.315-17.665-72.309c1.668-6.52,4.222-19.086,5.795-25.834
								c1.257-5.394-1.743-11.553,7.516-23.675c12.168-15.93,35.497-20.006,58.742-12.685
								C2418.911,524.293,2421.772,554.606,2409.109,594.812z"/><path fill="#382e28" d="M2379.826,508.776c-25.689-8.091-55.524,1.396-66.183,25.734
								c4.732-5.995,8.429-8.828,12.009-9.301c5.5-0.727,8.354,1.981,10.945,6.722c9.941,2.05,19.215-0.419,34.49,7.468
								c13.512,6.977,26.413,29.722,14.601,46.36c1.195,4.038,2.718,5.801,5.262,11.193c3.25-6.113,7.943-9.832,10.988-8.462
								c3.336,1.501,3.424,8.532,0.197,15.704c-2.184,4.856-5.327,8.523-8.165,9.925c0.706,5.768-4.301,9.858-4.687,12.024
								c13.529-12.127,16.015-18.62,21.297-29.042C2428.994,560.77,2419.71,521.337,2379.826,508.776z"/><path fill="#f0c7ad" d="M2070.737,849.038c0,12.698-2.982,22.991-11.154,22.991c-8.172,0-10.927-10.521-10.927-23.219
								c0-12.698,2.755-22.763,10.927-22.763C2067.755,826.047,2070.737,836.341,2070.737,849.038z"/><path fill="#f0c7ad" d="M2191.306,915.414c4.684,0.151,11.771-2.713,13.304-1.866
								c0.221,0.379-4.691,5.443-12.539,9.245c-9.305,4.509-12.636,5.653-13.65,7.197c-7.588,7.012,9.58,23.629,11.903,25.113
								c8.644,5.518,24.276,1.548,31.458-1.614c8.048-3.544,13.951-13.894,16.521-19.172c1.694-3.477,5.446-5.877,7.927-7.554
								c9.882-6.678,1.723-33.834-4.458-30.852c-5.685,2.69-9.478,3.103-14.461,1.513c-9.299-2.967-22.39,1.152-24.384,2.836
								c-4.366,3.688-14.009,6.117-18.006,6.394c-1.052,0.073-1.893,0.971-1.803,2.022
								C2183.396,911.916,2185.382,915.224,2191.306,915.414z"/><path fill="#fff" d="M2436.429,713.488c0.708,17.351-8.159,48.635-13.924,67.878
									c-10.019,33.441-21.093,73.041-33.818,89.948c-9.722,12.917-141.099,62.343-141.099,62.343
									c-14.768-1.934-26.409-36.461-15.716-47.606l114.645-60.44c0,0,18.504-91.14,28.996-112.123
									C2386.825,690.862,2434.688,670.846,2436.429,713.488z"/><polygon fill="#a37857" points="2208.863 963.458 2339.825 887.351 2126.02 765.341 1995.058 841.448"/><polygon fill="#bf997c" points="1995.022 854.363 2208.827 976.373 2208.863 963.458 1995.058 841.448"/><polygon fill="#785841" points="2339.825 900.702 2208.885 976.373 2208.848 963.458 2339.825 887.351"/><polygon fill="#a37857" points="2225.218 958.006 2356.179 881.9 2142.375 759.89 2011.413 835.996"/><polygon fill="#bf997c" points="2011.377 848.912 2225.181 970.922 2225.218 958.006 2011.413 835.996"/><polygon fill="#785841" points="2356.179 895.25 2225.24 970.922 2225.203 958.006 2356.179 881.9"/></g><g><path fill="#c9c9c9" d="M1629.592,346.622c-19.136-11.123-45.641-9.554-74.89,7.333
									c-58.147,33.573-105.113,114.936-104.925,181.738c0.094,33.189,11.807,56.54,30.707,67.523l17.802,10.511
									c-18.897-10.983-30.612-34.335-30.708-67.523c-0.189-66.802,46.778-148.167,104.926-181.738
									c29.252-16.891,55.754-18.453,74.891-7.334L1629.592,346.622z"/><path fill="#e6e6e6" d="M1572.503,364.466c58.136-33.564,105.409-6.611,105.602,60.191
										c0.085,30.415-9.62,63.822-25.677,94.381l9.637,68.126l-61.911-0.381c-8.6,7.586-17.644,14.226-26.966,19.605
										c-58.144,33.571-105.42,6.618-105.61-60.184C1467.389,479.402,1514.355,398.037,1572.503,364.466z"/><path fill="#b5b5b5" d="M1628.868,438.912l-10.6,1.158c15.732,12.146,18.106,14.481,24.453,21.705l9.98-2.256
									C1644.819,451.629,1634.094,443.22,1628.868,438.912z"/><polygon fill="#545454" points="1619.629 414.162 1609.029 415.32 1608.605 416.414 1619.204 415.256"/><polygon fill="#fff" points="1614.129 428.327 1603.529 429.485 1602.93 431.027 1613.53 429.869"/><path fill="#e6e6e6" d="M1613.53,429.869l-10.6,1.158c1.62,2.95,4.063,5.587,6.708,7.497
									c2.678,1.933,5.564,3.12,8.015,3.13l10.6-1.158c-2.45-0.01-5.337-1.197-8.015-3.13
									C1617.593,435.456,1615.15,432.819,1613.53,429.869z"/><path fill="#b5b5b5" d="M1563.116,402.18l-10.6,1.158c18.174,6.899,35.032,15.509,51.013,26.147l10.6-1.158
									C1598.148,417.688,1581.29,409.078,1563.116,402.18z"/><path fill="#454545" d="M1652.701,459.52c4.077-3.178,6.785-13.156,6.785-13.156s-17.346-13.697-25.535-20.543
										l0.401-1.033c-0.962-3.077-3.415-6.073-6.259-8.125c-2.792-2.015-5.962-3.121-8.464-2.501l-0.425,1.094
										c-17.832-10.766-37.394-15.77-56.089-13.076c18.174,6.899,35.032,15.509,51.013,26.147l-0.599,1.542
										c1.62,2.95,4.062,5.587,6.708,7.497c2.678,1.933,5.564,3.12,8.015,3.13l0.615-1.583
										C1644.6,451.058,1644.078,451.822,1652.701,459.52z"/><path fill="#997454" d="M1527.661,568.708l91.279-127.33c0.659-0.918-0.629-3.296-3.183-5.698
								c-2.881-2.71-6.272-4.422-7.579-3.829c-0.146,0.066-0.26,0.159-0.343,0.275l-91.279,127.33
								c0.083-0.116,0.197-0.208,0.343-0.274c1.307-0.594,4.698,1.118,7.579,3.829
								C1527.032,565.412,1528.321,567.79,1527.661,568.708z"/><path fill="#5c4b3c" d="M1600.011,463.897l-67.274,93.653c-0.616,0.855-1.788,1.07-2.668,0.492
								c-0.011-0.007-0.023-0.015-0.034-0.022c-0.94-0.612-1.182-1.884-0.526-2.794l67.273-93.653
								c0.616-0.855,1.79-1.06,2.682-0.499c0.012,0.007,0.023,0.014,0.034,0.022
								C1600.446,461.696,1600.667,462.986,1600.011,463.897z"/><path fill="#d6a275" d="M1527.318,568.983c1.307-0.594,0.036-3.268-2.839-5.972c-2.881-2.71-6.272-4.422-7.579-3.829
									c-1.307,0.594-0.036,3.268,2.845,5.978C1522.62,567.864,1526.011,569.576,1527.318,568.983z"/></g><g><path fill="#c9c9c9" d="M2463.148,294.832c19.136-11.123,45.641-9.554,74.89,7.333
									c58.147,33.572,105.114,114.936,104.925,181.738c-0.094,33.189-11.807,56.54-30.707,67.523l-17.802,10.511
									c18.898-10.983,30.612-34.335,30.708-67.523c0.188-66.802-46.778-148.167-104.926-181.738
									c-29.252-16.891-55.753-18.453-74.891-7.334L2463.148,294.832z"/><path fill="#e6e6e6" d="M2520.236,312.676c-58.136-33.564-105.409-6.61-105.602,60.191
										c-0.085,30.415,9.62,63.822,25.677,94.381l-9.637,68.126l61.911-0.381c8.6,7.586,17.644,14.226,26.966,19.605
										c58.144,33.571,105.42,6.618,105.61-60.184C2625.351,427.612,2578.384,346.247,2520.236,312.676z"/><polygon fill="#646361" points="2536.878 518.446 2541.311 512.095 2536.623 492.357 2532.19 498.708"/><path fill="#333" d="M2527.903,487.112l4.433-6.351c-0.452,0.648-1.119,1.156-1.984,1.484
										c-1.544,0.584-2.783,1.442-3.591,2.6l-4.433,6.351c0.808-1.158,2.048-2.016,3.591-2.6
										C2526.784,488.268,2527.451,487.76,2527.903,487.112z"/><path fill="#757573" d="M2565.561,508.164c-1.018-4.272-4.444-8.286-8.887-11.606
										c-3.903-2.914-7.048-6.482-8.713-10.09l-39.747-86.17c-0.819-1.776-0.783-3.344-0.019-4.438l4.433-6.351
										c-0.763,1.094-0.8,2.661,0.019,4.438l39.747,86.17c1.664,3.608,4.81,7.176,8.712,10.09
										c4.444,3.319,7.87,7.334,8.888,11.605c1.046,4.409,1.081,9.257-1.198,12.521l-4.433,6.351
										C2566.641,517.421,2566.607,512.573,2565.561,508.164z"/><path fill="#646361" d="M2503.918,384.38l4.433-6.351c-1.256,0.832-3.535,1.065-6.204,0.828
										c-5.579-0.496-12.861-3.049-16.053-6.501l-4.433,6.351c3.192,3.452,10.474,6.005,16.053,6.501
										C2500.383,385.445,2502.662,385.211,2503.918,384.38z"/><polygon fill="#b8b7b3" points="2481.66 378.707 2486.093 372.356 2481.403 352.614 2476.97 358.965"/><path fill="#646361" d="M2476.178,356.05l-4.433,6.351c1.125-1.612,2.815-2.839,5.225-3.436l4.433-6.351
										C2478.993,353.211,2477.303,354.437,2476.178,356.05z"/><path fill="#757573" d="M2513.773,391.894l4.433-6.351c1.005-1.44,1.344-3.345,0.771-5.76
										c-1.562-6.588-6.171-15.503-15.316-21.496l-4.433,6.351c9.145,5.994,13.753,14.909,15.316,21.496
										C2515.117,388.549,2514.779,390.454,2513.773,391.894z"/><path fill="#a6a6a3" d="M2476.97,358.965c-7.291,1.805-7.986,9.371-6.425,15.955c1.095,4.611,5,8.921,9.953,12.379
											c3.496,2.442,6.344,5.545,7.799,8.699l39.58,85.809c1.462,3.169,0.652,5.8-1.958,6.789
											c-3.462,1.31-5.394,3.999-4.361,8.354c1.567,6.588,6.177,15.507,15.32,21.497l-4.688-19.738
											c1.257-0.832,3.537-1.066,6.208-0.828c5.578,0.496,12.857,3.047,16.05,6.501l4.688,19.738
											c7.293-1.802,7.987-9.367,6.425-15.955c-1.018-4.272-4.444-8.286-8.888-11.605c-3.903-2.914-7.048-6.482-8.712-10.09
											l-39.747-86.17c-1.247-2.703-0.511-4.923,1.752-5.726c3.599-1.276,5.634-3.992,4.578-8.438
											c-1.562-6.588-6.171-15.503-15.316-21.496l4.69,19.742c-1.256,0.831-3.535,1.065-6.205,0.828
											c-5.579-0.496-12.861-3.049-16.053-6.501L2476.97,358.965z"/><path fill="#6a6a69" d="M2539.296,484.554c0.726,0.065,1.332-0.042,1.793-0.283
										c0.066-0.506-0.037-1.098-0.335-1.744l-38.184-82.781c-0.975-2.115-3.655-3.997-5.983-4.203
										c-0.727-0.065-1.334,0.042-1.796,0.283c-0.066,0.507,0.037,1.1,0.336,1.747l38.183,82.781
										C2534.285,482.465,2536.965,484.347,2539.296,484.554z"/><path fill="#cecdc9" d="M2494.134,398.997c-0.485-1.051-0.457-1.961-0.021-2.586c0.168-0.24,0.397-0.438,0.68-0.585
										c-0.066,0.507,0.037,1.1,0.336,1.747l38.183,82.781c0.974,2.111,3.654,3.993,5.985,4.2
										c0.726,0.065,1.332-0.042,1.793-0.283c-0.041,0.316-0.147,0.599-0.314,0.839c-0.441,0.632-1.302,0.972-2.473,0.868
										c-2.331-0.207-5.011-2.089-5.985-4.2L2494.134,398.997z"/><path fill="#fff" d="M2489.433,391.49c0.17-0.244,0.369-0.528,0.567-0.812L2489.433,391.49z"/></g></g></switch></svg>